<?xml version="1.0" encoding="UTF-8" standalone="no"?>
<!-- Created with Inkscape (http://www.inkscape.org/) -->

<svg
   width="21.674561"
   height="21.677734"
   viewBox="0 0 21.674561 21.677734"
   version="1.1"
   id="svg1"
   xml:space="preserve"
   xmlns="http://www.w3.org/2000/svg"
   xmlns:svg="http://www.w3.org/2000/svg"><defs
     id="defs1" /><g
     id="layer1"
     transform="translate(-3246.6643,631.33624)"><g
       id="g77"><path
         style="font-variation-settings:normal;vector-effect:none;fill:#ffffff;fill-opacity:1;fill-rule:evenodd;stroke:none;stroke-width:8.7475;stroke-linecap:round;stroke-linejoin:round;stroke-miterlimit:4;stroke-dasharray:none;stroke-dashoffset:0;stroke-opacity:1;-inkscape-stroke:none;paint-order:normal;stop-color:#000000"
         id="path2"
         width="225.19989"
         height="49.799999"
         x="1393.1318"
         y="572.19324"
         ry="0"
         d="m 1393.1318,572.19324 h 225.1999 v 0 a 49.799999,49.799999 135 0 1 -49.8,49.8 h -175.3999 z"
         transform="matrix(0.01616706,0.01616706,-0.01616706,0.01616706,3238.9735,-655.90526)" /><path
         style="font-variation-settings:normal;vector-effect:none;fill:#ffffff;fill-opacity:1;fill-rule:evenodd;stroke:none;stroke-width:8.7475;stroke-linecap:round;stroke-linejoin:round;stroke-miterlimit:4;stroke-dasharray:none;stroke-dashoffset:0;stroke-opacity:1;-inkscape-stroke:none;paint-order:normal;stop-color:#000000"
         id="path3"
         width="225.19989"
         height="49.799999"
         x="1393.1318"
         y="672.19324"
         d="m 1393.1318,672.19324 h 225.1999 v 0 a 49.799999,49.799999 135 0 1 -49.8,49.8 h -175.3999 z"
         transform="matrix(0.01616706,0.01616706,-0.01616706,0.01616706,3238.9735,-655.90526)" /><path
         style="font-variation-settings:normal;vector-effect:none;fill:#000000;fill-opacity:1;fill-rule:evenodd;stroke:none;stroke-width:8.7475;stroke-linecap:round;stroke-linejoin:round;stroke-miterlimit:4;stroke-dasharray:none;stroke-dashoffset:0;stroke-opacity:1;-inkscape-stroke:none;paint-order:normal;stop-color:#000000"
         id="path4"
         width="149.8"
         height="49.799999"
         x="1468.5317"
         y="822.19324"
         d="m 1518.3317,822.19324 h 100 l 0,0 a 49.799999,49.799999 135 0 1 -49.8,49.8 h -100 v 0 a 49.799999,49.799999 135 0 1 49.8,-49.8 z"
         transform="matrix(0.01616706,0.01616706,-0.01616706,0.01616706,3238.9735,-655.90526)" /><path
         style="font-variation-settings:normal;vector-effect:none;fill:#000000;fill-opacity:1;fill-rule:evenodd;stroke:none;stroke-width:8.7475;stroke-linecap:round;stroke-linejoin:round;stroke-miterlimit:4;stroke-dasharray:none;stroke-dashoffset:0;stroke-opacity:1;-inkscape-stroke:none;paint-order:normal;stop-color:#000000"
         id="path5"
         width="299.79999"
         height="49.799999"
         x="572.19324"
         y="-1693.1318"
         transform="matrix(-0.01616706,0.01616706,-0.01616706,-0.01616706,3238.9735,-655.90526)"
         d="m 572.19324,-1693.1318 h 299.79999 l 0,0 a 49.799999,49.799999 135 0 1 -49.8,49.8 H 621.99324 a 49.799999,49.799999 45 0 1 -49.8,-49.8 z" /><path
         style="font-variation-settings:normal;vector-effect:none;fill:#ffffff;fill-opacity:1;fill-rule:evenodd;stroke:none;stroke-width:8.7475;stroke-linecap:round;stroke-linejoin:round;stroke-miterlimit:4;stroke-dasharray:none;stroke-dashoffset:0;stroke-opacity:1;-inkscape-stroke:none;paint-order:normal;stop-color:#000000"
         id="path6"
         width="299.79999"
         height="49.799999"
         x="572.19324"
         y="-1368.3318"
         transform="matrix(-0.01616706,0.01616706,-0.01616706,-0.01616706,3238.9735,-655.90526)"
         d="m 572.19324,-1368.3318 h 299.79999 l 0,0 a 49.799999,49.799999 135 0 1 -49.8,49.8 H 621.99324 a 49.799999,49.799999 45 0 1 -49.8,-49.8 z" /><path
         style="font-variation-settings:normal;vector-effect:none;fill:#ffffff;fill-opacity:1;fill-rule:evenodd;stroke:none;stroke-width:8.7475;stroke-linecap:round;stroke-linejoin:round;stroke-miterlimit:4;stroke-dasharray:none;stroke-dashoffset:0;stroke-opacity:1;-inkscape-stroke:none;paint-order:normal;stop-color:#000000"
         id="path7"
         width="225.19989"
         height="49.799999"
         x="1393.1318"
         y="572.19324"
         ry="0"
         d="m 1393.1318,572.19324 h 225.1999 v 0 a 49.799999,49.799999 135 0 1 -49.8,49.8 h -175.3999 z"
         transform="matrix(0.01616706,-0.01616706,0.01616706,0.01616706,3222.0824,-601.96768)" /><path
         style="font-variation-settings:normal;vector-effect:none;fill:#ffffff;fill-opacity:1;fill-rule:evenodd;stroke:none;stroke-width:8.7475;stroke-linecap:round;stroke-linejoin:round;stroke-miterlimit:4;stroke-dasharray:none;stroke-dashoffset:0;stroke-opacity:1;-inkscape-stroke:none;paint-order:normal;stop-color:#000000"
         id="path8"
         width="225.19989"
         height="49.799999"
         x="1393.1318"
         y="672.19324"
         d="m 1393.1318,672.19324 h 225.1999 v 0 a 49.799999,49.799999 135 0 1 -49.8,49.8 h -175.3999 z"
         transform="matrix(0.01616706,-0.01616706,0.01616706,0.01616706,3222.0824,-601.96768)" /><path
         style="font-variation-settings:normal;vector-effect:none;fill:#000000;fill-opacity:1;fill-rule:evenodd;stroke:none;stroke-width:8.7475;stroke-linecap:round;stroke-linejoin:round;stroke-miterlimit:4;stroke-dasharray:none;stroke-dashoffset:0;stroke-opacity:1;-inkscape-stroke:none;paint-order:normal;stop-color:#000000"
         id="path9"
         width="149.8"
         height="49.799999"
         x="1468.5317"
         y="822.19324"
         d="m 1518.3317,822.19324 h 100 l 0,0 a 49.799999,49.799999 135 0 1 -49.8,49.8 h -100 v 0 a 49.799999,49.799999 135 0 1 49.8,-49.8 z"
         transform="matrix(0.01616706,-0.01616706,0.01616706,0.01616706,3222.0824,-601.96768)" /><path
         style="font-variation-settings:normal;vector-effect:none;fill:#ffffff;fill-opacity:1;fill-rule:evenodd;stroke:none;stroke-width:8.7475;stroke-linecap:round;stroke-linejoin:round;stroke-miterlimit:4;stroke-dasharray:none;stroke-dashoffset:0;stroke-opacity:1;-inkscape-stroke:none;paint-order:normal;stop-color:#000000"
         id="path10"
         width="299.79999"
         height="49.799999"
         x="572.19324"
         y="-1368.3318"
         transform="matrix(0.01616706,0.01616706,-0.01616706,0.01616706,3222.0824,-601.96768)"
         d="m 572.19324,-1368.3318 h 299.79999 l 0,0 a 49.799999,49.799999 135 0 1 -49.8,49.8 H 621.99324 a 49.799999,49.799999 45 0 1 -49.8,-49.8 z" /><path
         style="font-variation-settings:normal;vector-effect:none;fill:#000000;fill-opacity:1;fill-rule:evenodd;stroke:none;stroke-width:8.7475;stroke-linecap:round;stroke-linejoin:round;stroke-miterlimit:4;stroke-dasharray:none;stroke-dashoffset:0;stroke-opacity:1;-inkscape-stroke:none;paint-order:normal;stop-color:#000000"
         id="path11"
         width="299.79999"
         height="49.799999"
         x="572.19324"
         y="-1693.1318"
         transform="matrix(0.01616706,0.01616706,-0.01616706,0.01616706,3222.0856,-601.97092)"
         d="m 572.19324,-1693.1318 h 299.79999 l 0,0 a 49.799999,49.799999 135 0 1 -49.8,49.8 H 621.99324 a 49.799999,49.799999 45 0 1 -49.8,-49.8 z" /><path
         style="font-variation-settings:normal;vector-effect:none;fill:#ffffff;fill-opacity:1;fill-rule:evenodd;stroke:none;stroke-width:8.7475;stroke-linecap:round;stroke-linejoin:round;stroke-miterlimit:4;stroke-dasharray:none;stroke-dashoffset:0;stroke-opacity:1;-inkscape-stroke:none;paint-order:normal;stop-color:#000000"
         id="path12"
         width="225.19989"
         height="49.799999"
         x="1393.1318"
         y="572.19324"
         ry="0"
         d="m 1393.1318,572.19324 h 225.1999 v 0 a 49.799999,49.799999 135 0 1 -49.8,49.8 h -175.3999 z"
         transform="matrix(-0.01616706,-0.01616706,0.01616706,-0.01616706,3276.0297,-585.08626)" /><path
         style="font-variation-settings:normal;vector-effect:none;fill:#ffffff;fill-opacity:1;fill-rule:evenodd;stroke:none;stroke-width:8.7475;stroke-linecap:round;stroke-linejoin:round;stroke-miterlimit:4;stroke-dasharray:none;stroke-dashoffset:0;stroke-opacity:1;-inkscape-stroke:none;paint-order:normal;stop-color:#000000"
         id="path13"
         width="225.19989"
         height="49.799999"
         x="1393.1318"
         y="672.19324"
         d="m 1393.1318,672.19324 h 225.1999 v 0 a 49.799999,49.799999 135 0 1 -49.8,49.8 h -175.3999 z"
         transform="matrix(-0.01616706,-0.01616706,0.01616706,-0.01616706,3276.0297,-585.08626)" /><path
         style="font-variation-settings:normal;vector-effect:none;fill:#000000;fill-opacity:1;fill-rule:evenodd;stroke:none;stroke-width:8.7475;stroke-linecap:round;stroke-linejoin:round;stroke-miterlimit:4;stroke-dasharray:none;stroke-dashoffset:0;stroke-opacity:1;-inkscape-stroke:none;paint-order:normal;stop-color:#000000"
         id="path14"
         width="149.8"
         height="49.799999"
         x="1468.5317"
         y="822.19324"
         d="m 1518.3317,822.19324 h 100 l 0,0 a 49.799999,49.799999 135 0 1 -49.8,49.8 h -100 v 0 a 49.799999,49.799999 135 0 1 49.8,-49.8 z"
         transform="matrix(-0.01616706,-0.01616706,0.01616706,-0.01616706,3276.0297,-585.08626)" /><path
         style="font-variation-settings:normal;vector-effect:none;fill:#ffffff;fill-opacity:1;fill-rule:evenodd;stroke:none;stroke-width:8.7475;stroke-linecap:round;stroke-linejoin:round;stroke-miterlimit:4;stroke-dasharray:none;stroke-dashoffset:0;stroke-opacity:1;-inkscape-stroke:none;paint-order:normal;stop-color:#000000"
         id="path15"
         width="299.79999"
         height="49.799999"
         x="572.19324"
         y="-1368.3318"
         transform="matrix(0.01616706,-0.01616706,0.01616706,0.01616706,3276.0297,-585.08626)"
         d="m 572.19324,-1368.3318 h 299.79999 l 0,0 a 49.799999,49.799999 135 0 1 -49.8,49.8 H 621.99324 a 49.799999,49.799999 45 0 1 -49.8,-49.8 z" /><path
         style="font-variation-settings:normal;vector-effect:none;fill:#000000;fill-opacity:1;fill-rule:evenodd;stroke:none;stroke-width:8.7475;stroke-linecap:round;stroke-linejoin:round;stroke-miterlimit:4;stroke-dasharray:none;stroke-dashoffset:0;stroke-opacity:1;-inkscape-stroke:none;paint-order:normal;stop-color:#000000"
         id="path16"
         width="299.79999"
         height="49.799999"
         x="572.19324"
         y="-1693.1318"
         transform="matrix(0.01616706,-0.01616706,0.01616706,0.01616706,3276.0329,-585.08303)"
         d="m 572.19324,-1693.1318 h 299.79999 l 0,0 a 49.799999,49.799999 135 0 1 -49.8,49.8 H 621.99324 a 49.799999,49.799999 45 0 1 -49.8,-49.8 z" /><path
         style="font-variation-settings:normal;vector-effect:none;fill:#ffffff;fill-opacity:1;fill-rule:evenodd;stroke:none;stroke-width:8.7475;stroke-linecap:round;stroke-linejoin:round;stroke-miterlimit:4;stroke-dasharray:none;stroke-dashoffset:0;stroke-opacity:1;-inkscape-stroke:none;paint-order:normal;stop-color:#000000"
         id="path21"
         width="225.19989"
         height="49.799999"
         x="1393.1318"
         y="572.19324"
         ry="0"
         d="m 1393.1318,572.19324 h 225.1999 v 0 a 49.799999,49.799999 135 0 1 -49.8,49.8 h -175.3999 z"
         transform="matrix(-0.01616706,0.01616706,-0.01616706,-0.01616706,3292.9176,-639.02707)" /><path
         style="font-variation-settings:normal;vector-effect:none;fill:#ffffff;fill-opacity:1;fill-rule:evenodd;stroke:none;stroke-width:8.7475;stroke-linecap:round;stroke-linejoin:round;stroke-miterlimit:4;stroke-dasharray:none;stroke-dashoffset:0;stroke-opacity:1;-inkscape-stroke:none;paint-order:normal;stop-color:#000000"
         id="path22"
         width="225.19989"
         height="49.799999"
         x="1393.1318"
         y="672.19324"
         d="m 1393.1318,672.19324 h 225.1999 v 0 a 49.799999,49.799999 135 0 1 -49.8,49.8 h -175.3999 z"
         transform="matrix(-0.01616706,0.01616706,-0.01616706,-0.01616706,3292.9176,-639.02707)" /><path
         style="font-variation-settings:normal;vector-effect:none;fill:#000000;fill-opacity:1;fill-rule:evenodd;stroke:none;stroke-width:8.7475;stroke-linecap:round;stroke-linejoin:round;stroke-miterlimit:4;stroke-dasharray:none;stroke-dashoffset:0;stroke-opacity:1;-inkscape-stroke:none;paint-order:normal;stop-color:#000000"
         id="path23"
         width="149.8"
         height="49.799999"
         x="1468.5317"
         y="822.19324"
         d="m 1518.3317,822.19324 h 100 l 0,0 a 49.799999,49.799999 135 0 1 -49.8,49.8 h -100 v 0 a 49.799999,49.799999 135 0 1 49.8,-49.8 z"
         transform="matrix(-0.01616706,0.01616706,-0.01616706,-0.01616706,3292.9176,-639.02707)" /><path
         style="font-variation-settings:normal;vector-effect:none;fill:#ffffff;fill-opacity:1;fill-rule:evenodd;stroke:none;stroke-width:8.7475;stroke-linecap:round;stroke-linejoin:round;stroke-miterlimit:4;stroke-dasharray:none;stroke-dashoffset:0;stroke-opacity:1;-inkscape-stroke:none;paint-order:normal;stop-color:#000000"
         id="path24"
         width="299.79999"
         height="49.799999"
         x="572.19324"
         y="-1368.3318"
         transform="matrix(-0.01616706,-0.01616706,0.01616706,-0.01616706,3292.9176,-639.02707)"
         d="m 572.19324,-1368.3318 h 299.79999 l 0,0 a 49.799999,49.799999 135 0 1 -49.8,49.8 H 621.99324 a 49.799999,49.799999 45 0 1 -49.8,-49.8 z" /><path
         style="font-variation-settings:normal;vector-effect:none;fill:#000000;fill-opacity:1;fill-rule:evenodd;stroke:none;stroke-width:8.7475;stroke-linecap:round;stroke-linejoin:round;stroke-miterlimit:4;stroke-dasharray:none;stroke-dashoffset:0;stroke-opacity:1;-inkscape-stroke:none;paint-order:normal;stop-color:#000000"
         id="path25"
         width="299.79999"
         height="49.799999"
         x="572.19324"
         y="-1693.1318"
         transform="matrix(-0.01616706,-0.01616706,0.01616706,-0.01616706,3292.9208,-639.0303)"
         d="m 572.19324,-1693.1318 h 299.79999 l 0,0 a 49.799999,49.799999 135 0 1 -49.8,49.8 H 621.99324 a 49.799999,49.799999 45 0 1 -49.8,-49.8 z" /></g></g></svg>
